<svg width="245" height="56" viewBox="0 0 245 56" fill="none" xmlns="http://www.w3.org/2000/svg">
<path d="M40.115 35.777V29.144C40.115 27.753 39.345 25.896 38.364 24.914L30.432 16.984C29.352 15.908 27.461 15.908 26.384 16.984L18.456 24.914C17.471 25.895 16.7 27.754 16.7 29.144V35.777C16.7 37.353 17.984 38.634 19.561 38.634H24.952C25.689 38.634 26.291 38.032 26.291 37.296V31.077C26.291 30.673 26.62 30.343 27.025 30.343H29.789C30.195 30.343 30.524 30.673 30.524 31.077V37.296C30.524 38.032 31.126 38.634 31.864 38.634H37.253C38.829 38.635 40.115 37.354 40.115 35.777ZM28.298 0C12.695 0 0 12.688 0 28.284C0 41.683 9.52 53.34 22.636 56L22.892 54.731C10.378 52.191 1.297 41.068 1.297 28.284C1.297 13.403 13.41 1.297 28.297 1.297C43.184 1.297 55.294 13.403 55.294 28.284C55.294 41.073 46.211 52.194 33.697 54.731L33.957 56C47.073 53.344 56.593 41.688 56.593 28.284C56.593 12.688 43.9 0 28.298 0ZM64.26 35.568L64.27 35.572V35.568C64.267 35.568 64.257 35.568 64.26 35.568ZM105.73 35.227C105.419 35.594 105.134 35.905 104.884 36.151C104.634 36.395 104.406 36.589 104.203 36.733C103.997 36.879 103.804 37.006 103.633 37.104C103.785 36.114 103.931 35.183 104.076 34.316C104.137 33.949 104.196 33.583 104.26 33.212C104.326 32.842 104.388 32.491 104.45 32.158C104.513 31.823 104.571 31.525 104.621 31.26C104.672 31 104.72 30.798 104.754 30.64C104.771 30.57 104.779 30.51 104.779 30.456C104.779 30.285 104.719 30.165 104.595 30.083C104.472 30 104.32 29.966 104.139 29.966C103.987 29.966 103.828 29.993 103.658 30.044C103.487 30.099 103.326 30.177 103.171 30.278C103.02 30.385 102.88 30.516 102.76 30.671C102.64 30.823 102.558 31.007 102.51 31.202L101.899 33.775C101.874 33.965 101.823 34.192 101.744 34.474C101.665 34.756 101.56 35.032 101.431 35.29C101.304 35.55 101.153 35.777 100.979 35.965C100.804 36.151 100.609 36.246 100.39 36.246C100.257 36.246 100.146 36.211 100.058 36.144C99.969 36.074 99.899 35.992 99.848 35.884C99.797 35.774 99.759 35.65 99.737 35.517C99.718 35.374 99.709 35.233 99.709 35.087C99.709 34.808 99.731 34.483 99.779 34.118C99.823 33.745 99.886 33.374 99.967 32.991C100.046 32.605 100.134 32.235 100.238 31.872C100.34 31.505 100.444 31.188 100.549 30.919C100.584 30.827 100.61 30.751 100.621 30.675C100.641 30.6 100.646 30.527 100.646 30.46C100.646 30.251 100.571 30.087 100.425 29.985C100.279 29.883 100.102 29.833 99.899 29.833C99.662 29.833 99.415 29.899 99.165 30.036C98.912 30.175 98.722 30.378 98.586 30.638C98.405 31.011 98.244 31.368 98.102 31.726C97.963 32.087 97.849 32.46 97.753 32.847C97.661 33.233 97.588 33.638 97.537 34.062C97.512 34.308 97.493 34.582 97.48 34.853C97.436 34.884 97.391 34.922 97.347 34.948C97.189 35.052 97.028 35.157 96.86 35.258C96.689 35.363 96.524 35.448 96.366 35.531C96.202 35.609 96.054 35.673 95.908 35.715C95.765 35.765 95.638 35.79 95.527 35.79C95.479 35.79 95.428 35.756 95.378 35.689C95.328 35.623 95.277 35.531 95.23 35.416C95.182 35.303 95.145 35.176 95.113 35.037C95.082 34.891 95.062 34.74 95.062 34.588V34.467C95.082 34.348 95.103 34.231 95.132 34.107C95.163 33.987 95.192 33.867 95.22 33.758C95.252 33.654 95.283 33.557 95.312 33.461C95.347 33.366 95.378 33.29 95.404 33.233C95.675 32.708 95.963 32.17 96.269 31.616C96.576 31.068 96.879 30.502 97.183 29.932C97.487 29.362 97.78 28.786 98.061 28.21C98.339 27.634 98.589 27.055 98.801 26.482C99.013 25.906 99.184 25.334 99.311 24.764C99.438 24.194 99.498 23.638 99.498 23.093C99.498 22.84 99.479 22.599 99.444 22.365C99.403 22.124 99.337 21.919 99.242 21.732C99.15 21.542 99.023 21.39 98.859 21.276C98.694 21.162 98.488 21.105 98.235 21.105C97.868 21.105 97.506 21.219 97.152 21.44C96.792 21.658 96.45 21.965 96.127 22.355C95.798 22.744 95.483 23.2 95.187 23.719C94.886 24.241 94.614 24.808 94.361 25.409C94.104 26.01 93.877 26.637 93.677 27.289C93.475 27.944 93.299 28.592 93.157 29.245C93.005 29.893 92.897 30.523 92.821 31.131C92.745 31.745 92.707 32.308 92.707 32.827C92.707 33.365 92.752 33.872 92.824 34.372C92.714 34.46 92.599 34.549 92.479 34.643C92.15 34.893 91.805 35.123 91.435 35.33C91.067 35.542 90.69 35.714 90.301 35.858C89.914 35.998 89.544 36.067 89.194 36.067C89.08 36.067 88.978 36.055 88.88 36.03C88.785 36.01 88.693 35.966 88.605 35.909C88.519 35.852 88.434 35.77 88.348 35.665C88.263 35.561 88.174 35.429 88.092 35.276C88.598 35.13 89.068 34.934 89.504 34.688C89.941 34.434 90.315 34.149 90.631 33.827C90.947 33.505 91.192 33.163 91.372 32.806C91.549 32.441 91.638 32.075 91.638 31.714C91.638 31.381 91.581 31.083 91.464 30.815C91.347 30.543 91.183 30.315 90.973 30.126C90.77 29.939 90.524 29.791 90.244 29.683C89.963 29.582 89.662 29.528 89.333 29.528C88.931 29.528 88.563 29.601 88.231 29.741C87.901 29.886 87.604 30.079 87.338 30.316C87.072 30.563 86.844 30.841 86.641 31.158C86.445 31.481 86.28 31.813 86.147 32.165C86.017 32.517 85.919 32.874 85.853 33.241C85.79 33.6 85.755 33.949 85.755 34.272C85.755 34.284 85.758 34.291 85.758 34.291C85.587 34.399 85.409 34.484 85.22 34.558C84.989 34.652 84.786 34.697 84.609 34.697C84.371 34.697 84.171 34.666 84.02 34.601C83.871 34.535 83.75 34.45 83.663 34.339C83.577 34.232 83.514 34.114 83.479 33.975C83.444 33.842 83.425 33.703 83.425 33.564C83.425 33.431 83.438 33.304 83.456 33.177C83.478 33.051 83.5 32.937 83.532 32.835C83.56 32.728 83.595 32.617 83.636 32.517C83.766 32.228 83.882 31.982 83.993 31.773C84.097 31.558 84.192 31.368 84.271 31.197C84.347 31.026 84.411 30.861 84.455 30.722C84.499 30.57 84.518 30.418 84.518 30.253C84.518 30.038 84.416 29.86 84.214 29.728C84.011 29.589 83.735 29.519 83.398 29.519C83.271 29.519 83.151 29.539 83.037 29.57C82.924 29.609 82.815 29.65 82.727 29.71C82.631 29.764 82.556 29.83 82.496 29.902C82.439 29.982 82.398 30.06 82.381 30.146L80.08 35.633L79.953 35.643L80.296 30.099C80.29 29.947 80.233 29.81 80.124 29.691C80.017 29.577 79.864 29.519 79.665 29.519C79.637 29.519 79.608 29.519 79.586 29.523C79.555 29.529 79.529 29.533 79.497 29.539L78.447 29.703C78.263 29.728 78.139 29.916 78.086 30.254C78.042 30.511 78.017 30.843 78.004 31.261C77.702 30.969 77.383 30.703 77.041 30.469C76.617 30.182 76.164 29.953 75.679 29.78C75.192 29.61 74.673 29.52 74.119 29.52C73.47 29.52 72.887 29.637 72.368 29.875C71.849 30.109 71.406 30.437 71.045 30.843C70.69 31.261 70.411 31.742 70.221 32.299C70.025 32.861 69.93 33.457 69.93 34.102C69.93 34.501 69.978 34.894 70.057 35.28C70.028 35.204 69.996 35.128 69.949 35.052C69.614 34.501 68.892 34.33 68.341 34.666L68.335 34.672C68.335 34.672 68.297 34.692 68.221 34.735C68.196 34.754 68.126 34.792 67.999 34.849C67.759 34.962 67.35 35.115 66.802 35.279C66.258 35.425 65.546 35.59 64.833 35.611C64.662 35.618 64.491 35.611 64.364 35.595L64.269 35.574V35.576L64.199 35.533L64.179 35.519H64.186C64.179 35.519 64.179 35.513 64.17 35.507C64.153 35.487 64.135 35.475 64.119 35.449C64.078 35.405 64.04 35.357 64.002 35.291C63.926 35.158 63.856 34.987 63.793 34.788C63.698 34.462 63.635 34.083 63.604 33.675C64.487 33.013 65.446 32.158 66.376 31.089C66.573 30.88 66.751 30.651 66.94 30.425C67.129 30.2 67.317 29.959 67.503 29.709C67.902 29.19 68.193 28.741 68.583 28.177C69.298 27.102 69.985 25.921 70.58 24.627C70.878 23.969 71.151 23.298 71.366 22.564C71.578 21.824 71.771 21.064 71.695 20.102C71.67 19.855 71.626 19.596 71.506 19.305C71.392 19.02 71.18 18.685 70.84 18.444C70.511 18.21 70.1 18.109 69.796 18.109C69.489 18.115 69.235 18.147 68.985 18.217C67.997 18.508 67.345 19.096 66.785 19.675C66.228 20.26 65.782 20.9 65.361 21.536C64.94 22.179 64.563 22.824 64.224 23.489C63.543 24.808 63.033 26.172 62.591 27.495C62.16 28.83 61.834 30.166 61.647 31.469C61.603 31.78 61.571 32.09 61.545 32.401C61.356 32.508 61.172 32.609 61.004 32.698C60.494 32.958 60.083 33.109 59.798 33.208C59.658 33.262 59.551 33.293 59.479 33.318C59.406 33.335 59.368 33.346 59.368 33.346L59.33 33.362C59.317 33.362 59.305 33.369 59.289 33.372C58.678 33.585 58.355 34.252 58.567 34.856C58.779 35.469 59.447 35.795 60.058 35.584C60.058 35.584 60.106 35.565 60.201 35.534C60.293 35.502 60.432 35.451 60.609 35.382C60.869 35.28 61.217 35.128 61.622 34.919C61.647 35.062 61.679 35.208 61.711 35.353C61.793 35.679 61.91 36.009 62.079 36.332C62.161 36.496 62.263 36.661 62.386 36.816C62.443 36.895 62.509 36.97 62.582 37.046C62.642 37.116 62.737 37.204 62.842 37.286L62.914 37.347L62.952 37.378L62.974 37.392L63.049 37.445L63.084 37.47L63.173 37.521L63.214 37.546C63.268 37.571 63.331 37.609 63.385 37.626C63.604 37.718 63.787 37.761 63.957 37.8C64.299 37.862 64.584 37.876 64.857 37.876C65.914 37.862 66.718 37.686 67.399 37.518C68.076 37.347 68.599 37.148 68.979 36.977C69.159 36.895 69.317 36.81 69.441 36.736C69.517 36.693 69.558 36.668 69.558 36.668L69.561 36.661C69.954 36.42 70.15 35.99 70.112 35.56C70.219 35.984 70.381 36.37 70.602 36.711C70.836 37.075 71.138 37.366 71.505 37.591C71.862 37.819 72.302 37.929 72.822 37.929C73.176 37.929 73.511 37.869 73.829 37.749C74.145 37.626 74.433 37.458 74.699 37.245C74.965 37.04 75.202 36.79 75.411 36.502C75.614 36.214 75.791 35.907 75.937 35.584C76.077 35.255 76.187 34.917 76.263 34.565C76.342 34.213 76.377 33.869 76.377 33.524C76.377 33.178 76.335 32.818 76.247 32.444C76.165 32.065 76.038 31.704 75.867 31.369L75.936 31.274C76.152 31.413 76.398 31.59 76.689 31.793C76.984 32.002 77.278 32.22 77.582 32.458C77.734 32.571 77.88 32.692 78.026 32.818C78.029 32.897 78.032 32.976 78.039 33.068C78.052 33.331 78.067 33.628 78.083 33.948C78.103 34.267 78.121 34.653 78.141 35.091L78.157 35.372C78.173 35.653 78.198 35.948 78.223 36.255C78.248 36.566 78.305 36.851 78.397 37.116C78.489 37.378 78.628 37.596 78.811 37.767C79.001 37.942 79.261 38.027 79.603 38.027C79.805 38.027 80.024 37.928 80.255 37.742C80.486 37.553 80.717 37.311 80.945 37.009C81.175 36.711 81.4 36.378 81.616 36.009C81.831 35.645 82.027 35.28 82.191 34.936C82.201 35.154 82.252 35.367 82.349 35.572C82.445 35.781 82.578 35.962 82.752 36.123C82.926 36.287 83.135 36.42 83.382 36.516C83.628 36.611 83.913 36.662 84.227 36.662C84.604 36.662 84.997 36.586 85.409 36.44C85.655 36.352 85.896 36.241 86.137 36.118C86.257 36.378 86.4 36.614 86.576 36.833C86.852 37.169 87.194 37.435 87.605 37.634C88.017 37.833 88.498 37.931 89.049 37.931C89.397 37.931 89.745 37.896 90.087 37.814C90.429 37.732 90.758 37.628 91.077 37.498C91.394 37.369 91.698 37.214 91.986 37.049C92.277 36.879 92.547 36.707 92.797 36.533C92.955 36.416 93.107 36.303 93.259 36.181C93.29 36.254 93.316 36.327 93.347 36.4C93.548 36.865 93.785 37.238 94.057 37.513C94.329 37.792 94.62 37.931 94.937 37.931C95.133 37.931 95.348 37.906 95.578 37.846C95.806 37.792 96.037 37.72 96.28 37.628C96.517 37.529 96.755 37.421 96.992 37.308C97.229 37.188 97.458 37.064 97.679 36.941C97.724 36.916 97.776 36.884 97.82 36.859C97.915 37.017 98.016 37.163 98.136 37.289C98.338 37.502 98.575 37.666 98.842 37.777C99.108 37.896 99.38 37.954 99.661 37.954C99.981 37.954 100.313 37.865 100.655 37.688C100.997 37.52 101.326 37.295 101.642 37.011L101.402 37.827C100.984 38.175 100.567 38.532 100.155 38.912C99.743 39.295 99.35 39.678 98.97 40.067C98.594 40.459 98.245 40.851 97.923 41.244C97.603 41.64 97.323 42.022 97.09 42.384C96.859 42.751 96.672 43.099 96.539 43.428C96.406 43.757 96.336 44.051 96.336 44.314C96.336 44.701 96.403 44.998 96.532 45.229C96.659 45.454 96.82 45.627 97.016 45.75C97.212 45.877 97.424 45.956 97.656 45.997C97.887 46.042 98.103 46.06 98.302 46.06C98.805 46.06 99.261 45.971 99.675 45.8C100.091 45.626 100.467 45.389 100.803 45.078C101.138 44.766 101.439 44.401 101.704 43.968C101.969 43.535 102.205 43.06 102.414 42.541C102.623 42.021 102.8 41.471 102.952 40.876C103.103 40.281 103.237 39.677 103.348 39.051C103.92 38.699 104.453 38.338 104.951 37.969C105.163 37.807 105.378 37.639 105.593 37.465C105.815 37.281 106.024 37.102 106.226 36.908C106.429 36.724 106.614 36.531 106.778 36.342C106.949 36.149 107.082 35.969 107.183 35.787L106.765 33.838C106.382 34.392 106.034 34.854 105.73 35.227ZM64.318 28.012C64.663 26.746 65.15 25.471 65.739 24.24C66.039 23.623 66.368 23.025 66.752 22.462C67.135 21.896 67.575 21.383 68.049 20.953C68.518 20.526 69.056 20.193 69.47 20.101C69.543 20.082 69.625 20.076 69.679 20.076C69.692 20.127 69.71 20.193 69.72 20.291C69.752 20.753 69.625 21.398 69.454 22C69.276 22.607 69.036 23.215 68.773 23.804C68.244 24.981 67.596 26.07 66.927 27.063C66.604 27.519 66.212 28.069 65.876 28.468C65.705 28.683 65.537 28.892 65.357 29.094C65.173 29.297 65.008 29.499 64.824 29.683C64.457 30.079 64.09 30.436 63.732 30.762C63.864 29.873 64.061 28.949 64.318 28.012ZM74.571 34.164C74.486 34.537 74.375 34.873 74.229 35.183C74.09 35.487 73.932 35.74 73.742 35.942C73.552 36.145 73.362 36.247 73.162 36.247C72.934 36.247 72.735 36.199 72.577 36.101C72.412 36.007 72.283 35.88 72.181 35.716C72.082 35.558 72.007 35.364 71.962 35.152C71.918 34.937 71.892 34.703 71.892 34.457C71.892 34.105 71.936 33.735 72.032 33.346C72.127 32.963 72.253 32.609 72.418 32.292C72.582 31.969 72.772 31.71 72.987 31.508C73.202 31.305 73.43 31.203 73.672 31.203C73.856 31.203 74.008 31.251 74.137 31.352C74.264 31.45 74.368 31.583 74.45 31.753C74.532 31.921 74.596 32.12 74.634 32.349C74.679 32.583 74.695 32.829 74.695 33.105C74.695 33.441 74.654 33.793 74.571 34.164ZM87.903 33.344C87.916 33.164 87.937 32.981 87.975 32.787C88.016 32.594 88.071 32.398 88.14 32.211C88.216 32.024 88.311 31.854 88.431 31.701C88.551 31.556 88.703 31.43 88.877 31.338C89.058 31.249 89.273 31.201 89.523 31.201C89.662 31.201 89.783 31.283 89.877 31.455C89.975 31.623 90.02 31.841 90.02 32.101C90.02 32.29 89.95 32.484 89.804 32.683C89.658 32.879 89.475 33.059 89.266 33.234C89.051 33.405 88.819 33.538 88.573 33.649C88.323 33.756 88.094 33.809 87.886 33.809C87.888 33.68 87.891 33.524 87.903 33.344ZM95.07 29.189C95.156 28.593 95.263 28.017 95.402 27.455C95.542 26.898 95.701 26.37 95.881 25.879C96.061 25.379 96.244 24.942 96.441 24.569C96.638 24.196 96.834 23.895 97.03 23.68C97.226 23.462 97.406 23.351 97.577 23.351C97.625 23.351 97.65 23.411 97.66 23.531C97.669 23.652 97.673 23.797 97.673 23.965C97.622 24.497 97.498 25.067 97.309 25.683C97.113 26.304 96.885 26.917 96.622 27.537C96.359 28.157 96.081 28.756 95.786 29.344C95.491 29.926 95.213 30.455 94.947 30.92C94.947 30.359 94.988 29.784 95.07 29.189ZM100.918 40.967C100.836 41.265 100.734 41.569 100.62 41.885C100.5 42.192 100.367 42.496 100.216 42.796C100.064 43.097 99.892 43.362 99.711 43.594C99.524 43.828 99.325 44.018 99.107 44.163C98.885 44.303 98.657 44.372 98.411 44.372C98.177 44.372 98.059 44.265 98.059 44.046C98.059 43.913 98.1 43.745 98.189 43.537C98.278 43.337 98.398 43.112 98.549 42.879C98.701 42.642 98.878 42.398 99.081 42.138C99.28 41.885 99.492 41.635 99.72 41.392C99.942 41.151 100.177 40.923 100.411 40.714C100.648 40.502 100.879 40.321 101.107 40.17C101.063 40.404 101 40.67 100.918 40.967ZM114.455 30.998L114.322 30.973C112.302 30.596 110.976 30.26 110.976 29.066C110.976 27.054 113.895 26.995 114.224 26.995C115.677 27.016 116.797 27.27 117.529 28.446L117.697 28.717L119.005 27.94L118.815 27.655C117.619 25.87 116.115 25.505 114.228 25.505C112.584 25.505 111.107 26.011 110.277 26.858C109.688 27.458 109.4 28.214 109.42 29.102C109.42 31.551 111.879 32.033 114.051 32.455C116.245 32.875 117.68 33.254 117.667 34.666C117.667 36.626 115.26 36.838 114.229 36.838C112.864 36.838 111.139 36.164 110.487 34.875L110.341 34.586L108.951 35.281L109.099 35.57C110.119 37.592 112.416 38.312 114.228 38.312C117.342 38.312 119.21 36.955 119.223 34.681C119.223 31.917 116.69 31.428 114.455 30.998ZM125.435 36.529C125.014 36.73 124.619 36.836 124.292 36.836C123.373 36.836 123.079 36.447 123.079 35.236V30.484H125.912V29.146H123.079V26.597L121.622 26.752V29.146H119.853V30.484H121.622V35.236C121.622 37.257 122.493 38.241 124.292 38.241C124.811 38.241 125.371 38.092 126.001 37.787L126.276 37.652L125.741 36.382L125.435 36.529ZM134.355 30.295C133.592 29.499 132.497 29.045 131.269 29.045C128.67 29.045 126.713 31.018 126.713 33.635C126.713 36.272 128.67 38.26 131.269 38.26C132.484 38.26 133.551 37.809 134.355 36.975V38.124H135.828V29.146H134.355V30.295ZM133.635 35.822C133.069 36.463 132.247 36.801 131.27 36.801C129.484 36.801 128.186 35.471 128.186 33.635C128.186 31.809 129.484 30.485 131.27 30.485C133.439 30.485 134.422 32.124 134.422 33.643C134.422 34.475 134.144 35.25 133.635 35.822ZM143.397 29.146L141.219 34.256L140.554 35.933L137.939 29.351L137.861 29.146H136.264L139.735 37.695L138.06 41.598H139.64L145 29.146H143.397Z" fill="#00B5B4"/>
<path d="M155.723 32.8906H158.237C158.778 32.8906 159.238 32.972 159.619 33.1348C160 33.2975 160.291 33.5384 160.493 33.8574C160.698 34.1732 160.801 34.5638 160.801 35.0293C160.801 35.3841 160.736 35.6966 160.605 35.9668C160.475 36.237 160.291 36.4648 160.054 36.6504C159.816 36.8327 159.533 36.9743 159.204 37.0752L158.833 37.2559H156.572L156.562 36.2842H158.257C158.55 36.2842 158.794 36.2321 158.989 36.1279C159.185 36.0238 159.331 35.8822 159.429 35.7031C159.53 35.5208 159.58 35.3158 159.58 35.0879C159.58 34.8405 159.531 34.6257 159.434 34.4434C159.339 34.2578 159.193 34.1162 158.994 34.0186C158.796 33.9176 158.543 33.8672 158.237 33.8672H156.948V40H155.723V32.8906ZM159.78 40L158.11 36.8066L159.395 36.8018L161.089 39.9365V40H159.78ZM168.675 39.0283V40H164.9V39.0283H168.675ZM165.247 32.8906V40H164.021V32.8906H165.247ZM168.182 35.8594V36.8164H164.9V35.8594H168.182ZM168.65 32.8906V33.8672H164.9V32.8906H168.65ZM174.376 37.3486H172.525V36.377H174.376C174.698 36.377 174.959 36.3249 175.157 36.2207C175.356 36.1165 175.501 35.9733 175.592 35.791C175.686 35.6055 175.733 35.3939 175.733 35.1562C175.733 34.9316 175.686 34.7217 175.592 34.5264C175.501 34.3278 175.356 34.1683 175.157 34.0479C174.959 33.9274 174.698 33.8672 174.376 33.8672H172.901V40H171.676V32.8906H174.376C174.926 32.8906 175.393 32.9883 175.777 33.1836C176.165 33.3757 176.459 33.6426 176.661 33.9844C176.863 34.3229 176.964 34.7103 176.964 35.1465C176.964 35.6055 176.863 35.9993 176.661 36.3281C176.459 36.6569 176.165 36.9092 175.777 37.085C175.393 37.2607 174.926 37.3486 174.376 37.3486ZM185.731 36.25V36.6406C185.731 37.1777 185.661 37.6595 185.521 38.0859C185.382 38.5124 185.181 38.8753 184.921 39.1748C184.664 39.4743 184.354 39.7038 183.993 39.8633C183.632 40.0195 183.231 40.0977 182.792 40.0977C182.356 40.0977 181.957 40.0195 181.596 39.8633C181.238 39.7038 180.927 39.4743 180.663 39.1748C180.399 38.8753 180.194 38.5124 180.048 38.0859C179.905 37.6595 179.833 37.1777 179.833 36.6406V36.25C179.833 35.7129 179.905 35.2327 180.048 34.8096C180.191 34.3831 180.393 34.0202 180.653 33.7207C180.917 33.418 181.228 33.1885 181.586 33.0322C181.947 32.8727 182.346 32.793 182.782 32.793C183.222 32.793 183.622 32.8727 183.983 33.0322C184.345 33.1885 184.656 33.418 184.916 33.7207C185.176 34.0202 185.377 34.3831 185.517 34.8096C185.66 35.2327 185.731 35.7129 185.731 36.25ZM184.506 36.6406V36.2402C184.506 35.8431 184.467 35.4932 184.389 35.1904C184.314 34.8844 184.201 34.6289 184.052 34.4238C183.905 34.2155 183.725 34.0592 183.51 33.9551C183.295 33.8477 183.052 33.7939 182.782 33.7939C182.512 33.7939 182.271 33.8477 182.06 33.9551C181.848 34.0592 181.667 34.2155 181.518 34.4238C181.371 34.6289 181.259 34.8844 181.181 35.1904C181.103 35.4932 181.063 35.8431 181.063 36.2402V36.6406C181.063 37.0378 181.103 37.3893 181.181 37.6953C181.259 38.0013 181.373 38.2601 181.522 38.4717C181.675 38.68 181.858 38.8379 182.069 38.9453C182.281 39.0495 182.522 39.1016 182.792 39.1016C183.065 39.1016 183.308 39.0495 183.52 38.9453C183.731 38.8379 183.91 38.68 184.057 38.4717C184.203 38.2601 184.314 38.0013 184.389 37.6953C184.467 37.3893 184.506 37.0378 184.506 36.6406ZM192.697 38.1689C192.697 38.0225 192.674 37.8923 192.629 37.7783C192.587 37.6644 192.51 37.5602 192.399 37.4658C192.289 37.3714 192.132 37.2803 191.931 37.1924C191.732 37.1012 191.478 37.0085 191.169 36.9141C190.83 36.8099 190.518 36.6943 190.231 36.5674C189.948 36.4372 189.701 36.2874 189.489 36.1182C189.278 35.9456 189.113 35.7487 188.996 35.5273C188.879 35.3027 188.82 35.0439 188.82 34.751C188.82 34.4613 188.881 34.1976 189.001 33.96C189.125 33.7223 189.299 33.5173 189.523 33.3447C189.751 33.1689 190.02 33.0339 190.329 32.9395C190.638 32.8418 190.98 32.793 191.354 32.793C191.882 32.793 192.336 32.8906 192.717 33.0859C193.101 33.2812 193.396 33.5433 193.601 33.8721C193.809 34.2008 193.913 34.5638 193.913 34.9609H192.697C192.697 34.7266 192.647 34.5199 192.546 34.3408C192.448 34.1585 192.299 34.0153 192.097 33.9111C191.898 33.807 191.646 33.7549 191.34 33.7549C191.05 33.7549 190.809 33.7988 190.617 33.8867C190.425 33.9746 190.282 34.0934 190.188 34.2432C190.093 34.3929 190.046 34.5622 190.046 34.751C190.046 34.8844 190.077 35.0065 190.139 35.1172C190.201 35.2246 190.295 35.3255 190.422 35.4199C190.549 35.5111 190.708 35.5973 190.9 35.6787C191.092 35.7601 191.319 35.8382 191.579 35.9131C191.973 36.0303 192.316 36.1605 192.609 36.3037C192.902 36.4437 193.146 36.6032 193.342 36.7822C193.537 36.9613 193.684 37.1647 193.781 37.3926C193.879 37.6172 193.928 37.8727 193.928 38.1592C193.928 38.4587 193.868 38.7288 193.747 38.9697C193.627 39.2074 193.454 39.4108 193.229 39.5801C193.008 39.7461 192.741 39.8747 192.429 39.9658C192.119 40.0537 191.774 40.0977 191.394 40.0977C191.052 40.0977 190.715 40.0521 190.383 39.9609C190.054 39.8698 189.755 39.7314 189.484 39.5459C189.214 39.3571 188.999 39.1227 188.84 38.8428C188.68 38.5596 188.601 38.2292 188.601 37.8516H189.826C189.826 38.0827 189.865 38.2796 189.943 38.4424C190.025 38.6051 190.137 38.7386 190.28 38.8428C190.424 38.9437 190.59 39.0186 190.778 39.0674C190.97 39.1162 191.175 39.1406 191.394 39.1406C191.68 39.1406 191.919 39.0999 192.111 39.0186C192.307 38.9372 192.453 38.8232 192.551 38.6768C192.648 38.5303 192.697 38.361 192.697 38.1689ZM198.32 32.8906V40H197.095V32.8906H198.32ZM204.622 32.8906V40H203.406V32.8906H204.622ZM206.854 32.8906V33.8672H201.194V32.8906H206.854ZM215.323 36.25V36.6406C215.323 37.1777 215.253 37.6595 215.113 38.0859C214.973 38.5124 214.773 38.8753 214.513 39.1748C214.256 39.4743 213.946 39.7038 213.585 39.8633C213.224 40.0195 212.823 40.0977 212.384 40.0977C211.948 40.0977 211.549 40.0195 211.188 39.8633C210.829 39.7038 210.519 39.4743 210.255 39.1748C209.991 38.8753 209.786 38.5124 209.64 38.0859C209.496 37.6595 209.425 37.1777 209.425 36.6406V36.25C209.425 35.7129 209.496 35.2327 209.64 34.8096C209.783 34.3831 209.985 34.0202 210.245 33.7207C210.509 33.418 210.82 33.1885 211.178 33.0322C211.539 32.8727 211.938 32.793 212.374 32.793C212.813 32.793 213.214 32.8727 213.575 33.0322C213.937 33.1885 214.247 33.418 214.508 33.7207C214.768 34.0202 214.968 34.3831 215.108 34.8096C215.252 35.2327 215.323 35.7129 215.323 36.25ZM214.098 36.6406V36.2402C214.098 35.8431 214.059 35.4932 213.98 35.1904C213.906 34.8844 213.793 34.6289 213.644 34.4238C213.497 34.2155 213.316 34.0592 213.102 33.9551C212.887 33.8477 212.644 33.7939 212.374 33.7939C212.104 33.7939 211.863 33.8477 211.651 33.9551C211.44 34.0592 211.259 34.2155 211.109 34.4238C210.963 34.6289 210.851 34.8844 210.772 35.1904C210.694 35.4932 210.655 35.8431 210.655 36.2402V36.6406C210.655 37.0378 210.694 37.3893 210.772 37.6953C210.851 38.0013 210.965 38.2601 211.114 38.4717C211.267 38.68 211.45 38.8379 211.661 38.9453C211.873 39.0495 212.114 39.1016 212.384 39.1016C212.657 39.1016 212.9 39.0495 213.111 38.9453C213.323 38.8379 213.502 38.68 213.648 38.4717C213.795 38.2601 213.906 38.0013 213.98 37.6953C214.059 37.3893 214.098 37.0378 214.098 36.6406ZM218.549 32.8906H221.063C221.604 32.8906 222.064 32.972 222.445 33.1348C222.826 33.2975 223.118 33.5384 223.319 33.8574C223.524 34.1732 223.627 34.5638 223.627 35.0293C223.627 35.3841 223.562 35.6966 223.432 35.9668C223.301 36.237 223.118 36.4648 222.88 36.6504C222.642 36.8327 222.359 36.9743 222.03 37.0752L221.659 37.2559H219.398L219.389 36.2842H221.083C221.376 36.2842 221.62 36.2321 221.815 36.1279C222.011 36.0238 222.157 35.8822 222.255 35.7031C222.356 35.5208 222.406 35.3158 222.406 35.0879C222.406 34.8405 222.357 34.6257 222.26 34.4434C222.165 34.2578 222.019 34.1162 221.82 34.0186C221.622 33.9176 221.369 33.8672 221.063 33.8672H219.774V40H218.549V32.8906ZM222.606 40L220.937 36.8066L222.221 36.8018L223.915 39.9365V40H222.606ZM228.156 32.8906V40H226.931V32.8906H228.156ZM236.333 39.0283V40H232.559V39.0283H236.333ZM232.905 32.8906V40H231.68V32.8906H232.905ZM235.84 35.8594V36.8164H232.559V35.8594H235.84ZM236.309 32.8906V33.8672H232.559V32.8906H236.309ZM243.074 38.1689C243.074 38.0225 243.051 37.8923 243.006 37.7783C242.964 37.6644 242.887 37.5602 242.776 37.4658C242.666 37.3714 242.509 37.2803 242.308 37.1924C242.109 37.1012 241.855 37.0085 241.546 36.9141C241.207 36.8099 240.895 36.6943 240.608 36.5674C240.325 36.4372 240.078 36.2874 239.866 36.1182C239.655 35.9456 239.49 35.7487 239.373 35.5273C239.256 35.3027 239.197 35.0439 239.197 34.751C239.197 34.4613 239.257 34.1976 239.378 33.96C239.502 33.7223 239.676 33.5173 239.9 33.3447C240.128 33.1689 240.397 33.0339 240.706 32.9395C241.015 32.8418 241.357 32.793 241.731 32.793C242.259 32.793 242.713 32.8906 243.094 33.0859C243.478 33.2812 243.772 33.5433 243.978 33.8721C244.186 34.2008 244.29 34.5638 244.29 34.9609H243.074C243.074 34.7266 243.024 34.5199 242.923 34.3408C242.825 34.1585 242.675 34.0153 242.474 33.9111C242.275 33.807 242.023 33.7549 241.717 33.7549C241.427 33.7549 241.186 33.7988 240.994 33.8867C240.802 33.9746 240.659 34.0934 240.564 34.2432C240.47 34.3929 240.423 34.5622 240.423 34.751C240.423 34.8844 240.454 35.0065 240.516 35.1172C240.577 35.2246 240.672 35.3255 240.799 35.4199C240.926 35.5111 241.085 35.5973 241.277 35.6787C241.469 35.7601 241.696 35.8382 241.956 35.9131C242.35 36.0303 242.693 36.1605 242.986 36.3037C243.279 36.4437 243.523 36.6032 243.719 36.7822C243.914 36.9613 244.061 37.1647 244.158 37.3926C244.256 37.6172 244.305 37.8727 244.305 38.1592C244.305 38.4587 244.244 38.7288 244.124 38.9697C244.004 39.2074 243.831 39.4108 243.606 39.5801C243.385 39.7461 243.118 39.8747 242.806 39.9658C242.496 40.0537 242.151 40.0977 241.771 40.0977C241.429 40.0977 241.092 40.0521 240.76 39.9609C240.431 39.8698 240.132 39.7314 239.861 39.5459C239.591 39.3571 239.376 39.1227 239.217 38.8428C239.057 38.5596 238.978 38.2292 238.978 37.8516H240.203C240.203 38.0827 240.242 38.2796 240.32 38.4424C240.402 38.6051 240.514 38.7386 240.657 38.8428C240.8 38.9437 240.966 39.0186 241.155 39.0674C241.347 39.1162 241.552 39.1406 241.771 39.1406C242.057 39.1406 242.296 39.0999 242.488 39.0186C242.684 38.9372 242.83 38.8232 242.928 38.6768C243.025 38.5303 243.074 38.361 243.074 38.1689Z" fill="white"/>
</svg>
